<svg width="149" height="36" viewBox="0 0 149 36" fill="none" xmlns="http://www.w3.org/2000/svg">
<path d="M27.2299 8.37237C26.9057 8.0482 26.5816 7.72404 26.2574 7.39987C25.2849 6.36255 24.2476 5.32522 22.9509 4.67689C21.4598 3.89889 19.8389 4.09339 18.2181 4.09339C15.7545 4.09339 9.59531 4.09339 5.96466 4.09339L8.42832 7.39987C12.9018 7.39987 19.9038 7.39987 23.1454 7.39987C24.5069 7.39987 25.6739 7.65921 26.7761 8.37237C26.9706 8.4372 27.1651 8.4372 27.2299 8.37237Z" fill="#66C61C"/>
<path d="M29.9529 13.6888C29.6287 13.3646 29.3045 13.0404 28.9804 12.7163C28.0079 11.6789 26.9706 10.6416 25.6739 9.99329C24.1827 9.21529 22.5619 9.4098 20.9411 9.4098C18.8016 9.4098 13.6798 9.4098 10.0491 9.4098L12.5128 12.7163C16.9214 12.7163 22.9509 12.7163 25.9332 12.7163C27.2947 12.7163 28.4617 12.9756 29.5639 13.6888C29.6935 13.7536 29.8232 13.7536 29.9529 13.6888Z" fill="#4CA30D"/>
<path d="M33 18.8753C32.6759 18.5511 32.3517 18.227 32.0275 17.9028C31.055 16.8655 30.0177 15.8281 28.7211 15.1798C27.2299 14.4018 25.6091 14.5963 23.9882 14.5963C21.9784 14.5963 17.5698 14.5963 14.004 14.5963L16.4676 17.9028C20.7466 17.9028 26.1926 17.9028 28.9156 17.9028C30.2771 17.9028 31.444 18.1621 32.5462 18.8753C32.7407 18.9401 32.8704 19.005 33 18.8753Z" fill="#3B7C0F"/>
<path d="M5.70538 27.6277C6.02955 27.9519 6.35371 28.2761 6.67788 28.6002C7.65037 29.6375 8.6877 30.6749 9.98436 31.3232C11.4755 32.1012 13.0963 31.9067 14.7172 31.9067H26.9706L24.507 28.6002C20.0335 28.6002 13.0315 28.6002 9.78987 28.6002C8.42837 28.6002 7.26137 28.3409 6.15921 27.6277C5.96471 27.5629 5.83505 27.5629 5.70538 27.6277Z" fill="#66C61C"/>
<path d="M2.98236 22.3116C3.30653 22.6357 3.63069 22.9599 3.95486 23.2841C4.92735 24.3214 5.96467 25.3587 7.26133 26.0071C8.75249 26.7851 10.3733 26.5905 11.9941 26.5905H22.8861L20.4224 23.2841C16.0138 23.2841 9.98432 23.2841 7.00201 23.2841C5.64051 23.2841 4.47351 23.0247 3.37135 22.3116C3.24169 22.2467 3.11203 22.2467 2.98236 22.3116Z" fill="#4CA30D"/>
<path d="M0 17.0599C0.324165 17.384 0.64833 17.7082 0.972495 18.0324C1.94499 19.0697 2.98232 20.107 4.27898 20.7553C5.77014 21.5333 7.39096 21.3388 9.01179 21.3388H18.9961L16.5324 18.0324C12.2534 18.0324 6.80747 18.0324 4.08448 18.0324C2.72299 18.0324 1.55599 17.773 0.453829 17.0599C0.25933 16.995 0.129666 16.995 0 17.0599Z" fill="#3B7C0F"/>
<path d="M40.449 10.5061V25.5001H43.746V19.3051H50.025V16.7431H43.746V13.2781H50.991V10.5061H40.449Z" fill="#101828"/>
<path d="M59.2602 18.9061H54.4092C54.4232 18.6961 54.4652 18.4581 54.5352 18.1921C54.6192 17.9261 54.7522 17.6741 54.9342 17.4361C55.1302 17.1981 55.3822 17.0021 55.6902 16.8481C56.0122 16.6801 56.4112 16.5961 56.8872 16.5961C57.6152 16.5961 58.1542 16.7921 58.5042 17.1841C58.8682 17.5761 59.1202 18.1501 59.2602 18.9061ZM54.4092 20.7961H62.2422C62.2982 19.9561 62.2282 19.1511 62.0322 18.3811C61.8362 17.6111 61.5142 16.9251 61.0662 16.3231C60.6322 15.7211 60.0722 15.2451 59.3862 14.8951C58.7002 14.5311 57.8952 14.3491 56.9712 14.3491C56.1452 14.3491 55.3892 14.4961 54.7032 14.7901C54.0312 15.0841 53.4502 15.4901 52.9602 16.0081C52.4702 16.5121 52.0922 17.1141 51.8262 17.8141C51.5602 18.5141 51.4272 19.2701 51.4272 20.0821C51.4272 20.9221 51.5532 21.6921 51.8052 22.3921C52.0712 23.0921 52.4422 23.6941 52.9182 24.1981C53.3942 24.7021 53.9752 25.0941 54.6612 25.3741C55.3472 25.6401 56.1172 25.7731 56.9712 25.7731C58.2032 25.7731 59.2532 25.4931 60.1212 24.9331C60.9892 24.3731 61.6332 23.4421 62.0532 22.1401H59.4282C59.3302 22.4761 59.0642 22.7981 58.6302 23.1061C58.1962 23.4001 57.6782 23.5471 57.0762 23.5471C56.2362 23.5471 55.5922 23.3301 55.1442 22.8961C54.6962 22.4621 54.4512 21.7621 54.4092 20.7961Z" fill="#101828"/>
<path d="M63.2548 17.9821C63.2968 17.2821 63.4718 16.7011 63.7798 16.2391C64.0878 15.7771 64.4798 15.4061 64.9558 15.1261C65.4318 14.8461 65.9638 14.6501 66.5518 14.5381C67.1538 14.4121 67.7558 14.3491 68.3578 14.3491C68.9038 14.3491 69.4568 14.3911 70.0168 14.4751C70.5768 14.5451 71.0878 14.6921 71.5498 14.9161C72.0118 15.1401 72.3898 15.4551 72.6838 15.8611C72.9778 16.2531 73.1248 16.7781 73.1248 17.4361V23.0851C73.1248 23.5751 73.1528 24.0441 73.2088 24.4921C73.2648 24.9401 73.3628 25.2761 73.5028 25.5001H70.4788C70.4228 25.3321 70.3738 25.1641 70.3318 24.9961C70.3038 24.8141 70.2828 24.6321 70.2688 24.4501C69.7928 24.9401 69.2328 25.2831 68.5888 25.4791C67.9448 25.6751 67.2868 25.7731 66.6148 25.7731C66.0968 25.7731 65.6138 25.7101 65.1658 25.5841C64.7178 25.4581 64.3258 25.2621 63.9898 24.9961C63.6538 24.7301 63.3878 24.3941 63.1918 23.9881C63.0098 23.5821 62.9188 23.0991 62.9188 22.5391C62.9188 21.9231 63.0238 21.4191 63.2338 21.0271C63.4578 20.6211 63.7378 20.2991 64.0738 20.0611C64.4238 19.8231 64.8158 19.6481 65.2498 19.5361C65.6978 19.4101 66.1458 19.3121 66.5938 19.2421C67.0418 19.1721 67.4828 19.1161 67.9168 19.0741C68.3508 19.0321 68.7358 18.9691 69.0718 18.8851C69.4078 18.8011 69.6738 18.6821 69.8698 18.5281C70.0658 18.3601 70.1568 18.1221 70.1428 17.8141C70.1428 17.4921 70.0868 17.2401 69.9748 17.0581C69.8768 16.8621 69.7368 16.7151 69.5548 16.6171C69.3868 16.5051 69.1838 16.4351 68.9458 16.4071C68.7218 16.3651 68.4768 16.3441 68.2108 16.3441C67.6228 16.3441 67.1608 16.4701 66.8248 16.7221C66.4888 16.9741 66.2928 17.3941 66.2368 17.9821H63.2548ZM70.1428 20.1871C70.0168 20.2991 69.8558 20.3901 69.6598 20.4601C69.4778 20.5161 69.2748 20.5651 69.0508 20.6071C68.8408 20.6491 68.6168 20.6841 68.3788 20.7121C68.1408 20.7401 67.9028 20.7751 67.6648 20.8171C67.4408 20.8591 67.2168 20.9151 66.9928 20.9851C66.7828 21.0551 66.5938 21.1531 66.4258 21.2791C66.2718 21.3911 66.1458 21.5381 66.0478 21.7201C65.9498 21.9021 65.9008 22.1331 65.9008 22.4131C65.9008 22.6791 65.9498 22.9031 66.0478 23.0851C66.1458 23.2671 66.2788 23.4141 66.4468 23.5261C66.6148 23.6241 66.8108 23.6941 67.0348 23.7361C67.2588 23.7781 67.4898 23.7991 67.7278 23.7991C68.3158 23.7991 68.7708 23.7011 69.0928 23.5051C69.4148 23.3091 69.6528 23.0781 69.8068 22.8121C69.9608 22.5321 70.0518 22.2521 70.0798 21.9721C70.1218 21.6921 70.1428 21.4681 70.1428 21.3001V20.1871Z" fill="#101828"/>
<path d="M78.5894 14.6431V11.3881H75.6074V14.6431H73.8014V16.6381H75.6074V23.0431C75.6074 23.5891 75.6984 24.0301 75.8804 24.3661C76.0624 24.7021 76.3074 24.9611 76.6154 25.1431C76.9374 25.3251 77.3014 25.4441 77.7074 25.5001C78.1274 25.5701 78.5684 25.6051 79.0304 25.6051C79.3244 25.6051 79.6254 25.5981 79.9334 25.5841C80.2414 25.5701 80.5214 25.5421 80.7734 25.5001V23.1901C80.6334 23.2181 80.4864 23.2391 80.3324 23.2531C80.1784 23.2671 80.0174 23.2741 79.8494 23.2741C79.3454 23.2741 79.0094 23.1901 78.8414 23.0221C78.6734 22.8541 78.5894 22.5181 78.5894 22.0141V16.6381H80.7734V14.6431H78.5894Z" fill="#101828"/>
<path d="M81.5622 10.5061V25.5001H84.5442V19.8091C84.5442 18.7031 84.7262 17.9121 85.0902 17.4361C85.4542 16.9461 86.0422 16.7011 86.8542 16.7011C87.5682 16.7011 88.0652 16.9251 88.3452 17.3731C88.6252 17.8071 88.7652 18.4721 88.7652 19.3681V25.5001H91.7472V18.8221C91.7472 18.1501 91.6842 17.5411 91.5582 16.9951C91.4462 16.4351 91.2432 15.9661 90.9492 15.5881C90.6552 15.1961 90.2492 14.8951 89.7312 14.6851C89.2272 14.4611 88.5762 14.3491 87.7782 14.3491C87.2182 14.3491 86.6442 14.4961 86.0562 14.7901C85.4682 15.0701 84.9852 15.5251 84.6072 16.1551H84.5442V10.5061H81.5622Z" fill="#101828"/>
<path d="M100.688 18.9061H95.8375C95.8515 18.6961 95.8935 18.4581 95.9635 18.1921C96.0475 17.9261 96.1805 17.6741 96.3625 17.4361C96.5585 17.1981 96.8105 17.0021 97.1185 16.8481C97.4405 16.6801 97.8395 16.5961 98.3155 16.5961C99.0435 16.5961 99.5825 16.7921 99.9325 17.1841C100.296 17.5761 100.548 18.1501 100.688 18.9061ZM95.8375 20.7961H103.67C103.726 19.9561 103.656 19.1511 103.46 18.3811C103.264 17.6111 102.942 16.9251 102.494 16.3231C102.06 15.7211 101.5 15.2451 100.814 14.8951C100.128 14.5311 99.3235 14.3491 98.3995 14.3491C97.5735 14.3491 96.8175 14.4961 96.1315 14.7901C95.4595 15.0841 94.8785 15.4901 94.3885 16.0081C93.8985 16.5121 93.5205 17.1141 93.2545 17.8141C92.9885 18.5141 92.8555 19.2701 92.8555 20.0821C92.8555 20.9221 92.9815 21.6921 93.2335 22.3921C93.4995 23.0921 93.8705 23.6941 94.3465 24.1981C94.8225 24.7021 95.4035 25.0941 96.0895 25.3741C96.7755 25.6401 97.5455 25.7731 98.3995 25.7731C99.6315 25.7731 100.681 25.4931 101.549 24.9331C102.417 24.3731 103.061 23.4421 103.481 22.1401H100.856C100.758 22.4761 100.492 22.7981 100.058 23.1061C99.6245 23.4001 99.1065 23.5471 98.5045 23.5471C97.6645 23.5471 97.0205 23.3301 96.5725 22.8961C96.1245 22.4621 95.8795 21.7621 95.8375 20.7961Z" fill="#101828"/>
<path d="M104.809 14.6431V25.5001H107.791V20.6071C107.791 20.1171 107.84 19.6621 107.938 19.2421C108.036 18.8221 108.197 18.4581 108.421 18.1501C108.659 17.8281 108.967 17.5761 109.345 17.3941C109.723 17.2121 110.185 17.1211 110.731 17.1211C110.913 17.1211 111.102 17.1351 111.298 17.1631C111.494 17.1771 111.662 17.1981 111.802 17.2261V14.4541C111.564 14.3841 111.347 14.3491 111.151 14.3491C110.773 14.3491 110.409 14.4051 110.059 14.5171C109.709 14.6291 109.38 14.7901 109.072 15.0001C108.764 15.1961 108.491 15.4411 108.253 15.7351C108.015 16.0151 107.826 16.3231 107.686 16.6591H107.644V14.6431H104.809Z" fill="#101828"/>
<path d="M115.953 22.7281V13.2781H118.305C119.117 13.2781 119.796 13.3971 120.342 13.6351C120.902 13.8591 121.35 14.1881 121.686 14.6221C122.022 15.0561 122.26 15.5811 122.4 16.1971C122.554 16.7991 122.631 17.4781 122.631 18.2341C122.631 19.0601 122.526 19.7601 122.316 20.3341C122.106 20.9081 121.826 21.3771 121.476 21.7411C121.126 22.0911 120.727 22.3431 120.279 22.4971C119.831 22.6511 119.369 22.7281 118.893 22.7281H115.953ZM112.656 10.5061V25.5001H119.124C120.272 25.5001 121.266 25.3111 122.106 24.9331C122.96 24.5411 123.667 24.0091 124.227 23.3371C124.801 22.6651 125.228 21.8671 125.508 20.9431C125.788 20.0191 125.928 19.0111 125.928 17.9191C125.928 16.6731 125.753 15.5881 125.403 14.6641C125.067 13.7401 124.591 12.9701 123.975 12.3541C123.373 11.7381 122.652 11.2761 121.812 10.9681C120.986 10.6601 120.09 10.5061 119.124 10.5061H112.656Z" fill="#101828"/>
<path d="M134.585 18.9061H129.734C129.748 18.6961 129.79 18.4581 129.86 18.1921C129.944 17.9261 130.077 17.6741 130.259 17.4361C130.455 17.1981 130.707 17.0021 131.015 16.8481C131.337 16.6801 131.736 16.5961 132.212 16.5961C132.94 16.5961 133.479 16.7921 133.829 17.1841C134.193 17.5761 134.445 18.1501 134.585 18.9061ZM129.734 20.7961H137.567C137.623 19.9561 137.553 19.1511 137.357 18.3811C137.161 17.6111 136.839 16.9251 136.391 16.3231C135.957 15.7211 135.397 15.2451 134.711 14.8951C134.025 14.5311 133.22 14.3491 132.296 14.3491C131.47 14.3491 130.714 14.4961 130.028 14.7901C129.356 15.0841 128.775 15.4901 128.285 16.0081C127.795 16.5121 127.417 17.1141 127.151 17.8141C126.885 18.5141 126.752 19.2701 126.752 20.0821C126.752 20.9221 126.878 21.6921 127.13 22.3921C127.396 23.0921 127.767 23.6941 128.243 24.1981C128.719 24.7021 129.3 25.0941 129.986 25.3741C130.672 25.6401 131.442 25.7731 132.296 25.7731C133.528 25.7731 134.578 25.4931 135.446 24.9331C136.314 24.3731 136.958 23.4421 137.378 22.1401H134.753C134.655 22.4761 134.389 22.7981 133.955 23.1061C133.521 23.4001 133.003 23.5471 132.401 23.5471C131.561 23.5471 130.917 23.3301 130.469 22.8961C130.021 22.4621 129.776 21.7621 129.734 20.7961Z" fill="#101828"/>
<path d="M144.711 25.5001L148.386 14.6431H145.425L143.136 22.0561H143.094L140.805 14.6431H137.676L141.393 25.5001H144.711Z" fill="#101828"/>
</svg>
