<svg width="149" height="36" viewBox="0 0 149 36" fill="none" xmlns="http://www.w3.org/2000/svg">
<path d="M23.1967 1.5H10.5533L0.375 11.6783V24.3217L10.5533 34.5H23.1967L33.375 24.3217V11.6783L23.1967 1.5ZM12.3027 24.4807L5.78224 17.9602L12.3027 11.4398C14.7678 8.9747 18.8232 8.9747 21.2883 11.4398L27.8087 17.9602L21.2883 24.4807C18.8232 26.9458 14.8473 26.9458 12.3027 24.4807Z" fill="#444CE7"/>
<path d="M47.88 25.6799C49.905 25.6799 51.57 24.6449 52.0875 23.0924V25.4999H55.08V19.4249C55.08 18.0524 54 16.8824 52.5375 16.8824H48.2625V19.4249H51.3C51.6825 19.4249 51.93 19.6724 51.93 20.0549C51.93 21.5174 49.995 22.9349 48.0375 22.9349C45.4275 22.9349 43.3575 20.8874 43.3575 17.6249C43.3575 14.3624 45.4275 12.4724 48.105 12.4724C50.13 12.4724 51.525 13.5749 51.7725 15.2624H55.125C54.9225 11.8874 52.0875 9.56992 48.1275 9.56992C43.965 9.56992 40.14 12.2474 40.14 17.6249C40.14 23.0024 43.8525 25.6799 47.88 25.6799Z" fill="#101828"/>
<path d="M56.3646 25.4999H59.4921V9.23242H56.3646V25.4999Z" fill="#101828"/>
<path d="M66.2384 25.6799C69.7259 25.6799 72.2234 23.2049 72.2234 19.8299C72.2234 16.4549 69.7259 13.9799 66.2384 13.9799C62.7509 13.9799 60.2534 16.4549 60.2534 19.8299C60.2534 23.2049 62.7509 25.6799 66.2384 25.6799ZM66.2384 22.9799C64.5509 22.9799 63.4034 21.6974 63.4034 19.8299C63.4034 17.9399 64.5509 16.6574 66.2384 16.6574C67.9259 16.6574 69.0734 17.9399 69.0734 19.8299C69.0734 21.6974 67.9259 22.9799 66.2384 22.9799Z" fill="#101828"/>
<path d="M79.2216 25.6799C82.5741 25.6799 84.5766 23.3624 84.5766 19.8299C84.5766 16.2974 82.5741 13.9799 79.2666 13.9799C77.8491 13.9799 76.7466 14.5199 76.1166 15.3524V9.23242H72.9891V25.4999H76.1166V24.2624C76.7466 25.1399 77.9166 25.6799 79.2216 25.6799ZM78.7266 22.9799C77.0391 22.9799 75.9366 21.7199 75.9366 19.8299C75.9366 17.9174 77.0391 16.6574 78.7266 16.6574C80.3691 16.6574 81.4941 17.9174 81.4941 19.8299C81.4941 21.7199 80.3691 22.9799 78.7266 22.9799Z" fill="#101828"/>
<path d="M89.8119 13.9799C86.7069 13.9799 84.8619 15.8024 84.7269 18.0749H87.5169C87.5619 17.1299 88.2594 16.2749 89.6319 16.2749C90.9144 16.2749 91.6569 16.9274 91.6569 17.8724C91.6569 18.3449 91.3644 18.7049 90.8019 18.7049H88.8894C86.4144 18.7049 84.7494 20.0549 84.7494 22.2824C84.7494 24.2174 86.2569 25.6799 88.4619 25.6799C90.0144 25.6799 91.2744 24.9824 91.6569 23.9249V25.4999H94.7619V18.2099C94.7619 15.6449 92.6694 13.9799 89.8119 13.9799ZM89.2494 23.4074C88.3719 23.4074 87.7419 22.8899 87.7419 22.1474C87.7419 21.2699 88.4169 20.6849 89.3619 20.6849H91.6569V20.8424C91.6569 22.2824 90.7794 23.4074 89.2494 23.4074Z" fill="#101828"/>
<path d="M95.9637 25.4999H99.0913V9.23242H95.9637V25.4999Z" fill="#101828"/>
<path d="M100.753 25.4999H107.188C110.518 25.4999 112.813 23.7899 112.813 20.7974C112.813 18.7274 111.598 17.4674 110.158 16.9049C111.08 16.4099 112.003 15.2849 112.003 13.7999C112.003 11.1674 109.865 9.74992 107.008 9.74992H100.753V25.4999ZM104.083 15.7574V12.4274H106.693C108.2 12.4274 108.875 13.0349 108.875 14.0924C108.875 15.1499 108.2 15.7574 106.76 15.7574H104.083ZM104.083 22.5749V18.6149H106.895C108.763 18.6149 109.595 19.3349 109.595 20.6174C109.595 21.8999 108.763 22.5749 106.895 22.5749H104.083Z" fill="#101828"/>
<path d="M118.253 13.9799C115.148 13.9799 113.303 15.8024 113.168 18.0749H115.958C116.003 17.1299 116.701 16.2749 118.073 16.2749C119.356 16.2749 120.098 16.9274 120.098 17.8724C120.098 18.3449 119.806 18.7049 119.243 18.7049H117.331C114.856 18.7049 113.191 20.0549 113.191 22.2824C113.191 24.2174 114.698 25.6799 116.903 25.6799C118.456 25.6799 119.716 24.9824 120.098 23.9249V25.4999H123.203V18.2099C123.203 15.6449 121.111 13.9799 118.253 13.9799ZM117.691 23.4074C116.813 23.4074 116.183 22.8899 116.183 22.1474C116.183 21.2699 116.858 20.6849 117.803 20.6849H120.098V20.8424C120.098 22.2824 119.221 23.4074 117.691 23.4074Z" fill="#101828"/>
<path d="M124.225 25.4999H127.375V19.2899C127.375 17.8274 128.343 16.7699 129.715 16.7699C131.02 16.7699 131.898 17.7599 131.898 19.1324V25.4999H135.048V18.4349C135.048 15.8249 133.383 13.9799 130.818 13.9799C129.265 13.9799 128.005 14.6324 127.375 15.7349V14.1599H124.225V25.4999Z" fill="#101828"/>
<path d="M144.025 25.4999H147.805L142.923 18.6149L147.445 14.1599H143.485L139.548 18.0299V9.23242H136.398V25.4999H139.548V21.9449L140.808 20.7074L144.025 25.4999Z" fill="#101828"/>
</svg>
