<svg width="126" height="36" viewBox="0 0 126 36" fill="none" xmlns="http://www.w3.org/2000/svg">
<path fill-rule="evenodd" clip-rule="evenodd" d="M15.4491 2.58601C15.0703 2.50811 14.6797 2.50811 14.3009 2.58601C13.863 2.67607 13.4717 2.89526 13.1606 3.06952L13.0758 3.1169L2.53115 8.97502C2.502 8.99121 2.47196 9.00776 2.44118 9.02471C2.11183 9.20612 1.69771 9.43421 1.3797 9.7793C1.10476 10.0777 0.896685 10.4313 0.769402 10.8165C0.62218 11.2621 0.623903 11.7349 0.625272 12.1109C0.6254 12.146 0.625525 12.1803 0.625525 12.2137V23.7801C0.625525 23.8135 0.6254 23.8477 0.625272 23.8829C0.623903 24.2589 0.62218 24.7317 0.769402 25.1772C0.896685 25.5625 1.10476 25.9161 1.3797 26.2145C1.69772 26.5595 2.11183 26.7876 2.44118 26.969C2.47196 26.986 2.502 27.0025 2.53115 27.0187L13.0758 32.8769L13.1606 32.9242C13.4717 33.0985 13.863 33.3177 14.3009 33.4077C14.6797 33.4856 15.0703 33.4856 15.4491 33.4077C15.887 33.3177 16.2783 33.0985 16.5894 32.9242L16.6742 32.8769L27.2189 27.0187C27.2317 27.0116 27.2448 27.0043 27.258 26.997C27.2747 26.9878 27.2916 26.9785 27.3088 26.969C27.6382 26.7876 28.0523 26.5595 28.3703 26.2145C28.6452 25.9161 28.8533 25.5625 28.9806 25.1772C29.1278 24.7317 29.1261 24.2589 29.1247 23.8829C29.1246 23.8477 29.1245 23.8134 29.1245 23.7801V12.2136C29.1245 12.1803 29.1246 12.146 29.1247 12.1109C29.1261 11.7349 29.1278 11.2621 28.9806 10.8165C28.8533 10.4313 28.6452 10.0777 28.3703 9.7793C28.0523 9.4342 27.6382 9.20611 27.3088 9.0247L27.3077 9.02407C27.2773 9.00734 27.2476 8.99101 27.2189 8.97502L16.6742 3.1169L16.5894 3.06952C16.2783 2.89526 15.887 2.67607 15.4491 2.58601ZM14.4598 5.60816C14.6757 5.48819 14.786 5.42757 14.8682 5.38791L14.875 5.38465L14.8818 5.38791C14.964 5.42757 15.0743 5.48819 15.2902 5.60815L24.7653 10.8721L14.875 16.3668L4.98464 10.8721L14.4598 5.60816ZM3.47542 13.2938L13.45 18.8353L13.45 29.8246L3.91518 24.5275C3.68726 24.4009 3.57089 24.3355 3.48924 24.2835L3.48235 24.2791L3.48183 24.2709C3.47601 24.1743 3.47542 24.0408 3.47542 23.7801V13.2938Z" fill="#101828"/>
<path d="M42.0933 22.7589H46.6293V25.4319H38.6306V11.2164H42.0933V22.7589Z" fill="#101828"/>
<path d="M49.8199 12.9579C49.2124 12.9579 48.7129 12.7824 48.3214 12.4314C47.9434 12.0669 47.7544 11.6214 47.7544 11.0949C47.7544 10.5549 47.9434 10.1094 48.3214 9.75842C48.7129 9.39392 49.2124 9.21167 49.8199 9.21167C50.4139 9.21167 50.8999 9.39392 51.2779 9.75842C51.6694 10.1094 51.8652 10.5549 51.8652 11.0949C51.8652 11.6214 51.6694 12.0669 51.2779 12.4314C50.8999 12.7824 50.4139 12.9579 49.8199 12.9579ZM51.5412 14.1324V25.4319H48.0784V14.1324H51.5412Z" fill="#101828"/>
<path d="M58.1411 13.9704C58.9376 13.9704 59.6329 14.1324 60.2269 14.4564C60.8344 14.7804 61.3001 15.2057 61.6241 15.7322V14.1324H65.0869V25.4117C65.0869 26.4512 64.8776 27.3894 64.4591 28.2264C64.0541 29.0769 63.4264 29.7519 62.5759 30.2514C61.7389 30.7509 60.6926 31.0007 59.4371 31.0007C57.7631 31.0007 56.4064 30.6024 55.3669 29.8059C54.3274 29.0229 53.7334 27.9564 53.5849 26.6064H57.0071C57.1151 27.0384 57.3716 27.3759 57.7766 27.6189C58.1816 27.8754 58.6811 28.0037 59.2751 28.0037C59.9906 28.0037 60.5576 27.7944 60.9761 27.3759C61.4081 26.9709 61.6241 26.3162 61.6241 25.4117V23.8119C61.2866 24.3384 60.8209 24.7704 60.2269 25.1079C59.6329 25.4319 58.9376 25.5939 58.1411 25.5939C57.2096 25.5939 56.3659 25.3577 55.6099 24.8852C54.8539 24.3992 54.2531 23.7174 53.8076 22.8399C53.3756 21.9489 53.1596 20.9229 53.1596 19.7619C53.1596 18.6009 53.3756 17.5817 53.8076 16.7042C54.2531 15.8267 54.8539 15.1517 55.6099 14.6792C56.3659 14.2067 57.2096 13.9704 58.1411 13.9704ZM61.6241 19.7822C61.6241 18.9182 61.3811 18.2364 60.8951 17.7369C60.4226 17.2374 59.8421 16.9877 59.1536 16.9877C58.4651 16.9877 57.8779 17.2374 57.3919 17.7369C56.9194 18.2229 56.6831 18.8979 56.6831 19.7619C56.6831 20.6259 56.9194 21.3144 57.3919 21.8274C57.8779 22.3269 58.4651 22.5767 59.1536 22.5767C59.8421 22.5767 60.4226 22.3269 60.8951 21.8274C61.3811 21.3279 61.6241 20.6462 61.6241 19.7822Z" fill="#101828"/>
<path d="M74.3353 14.0109C75.6313 14.0109 76.6708 14.4429 77.4538 15.3069C78.2368 16.1574 78.6283 17.3319 78.6283 18.8304V25.4319H75.1858V19.2962C75.1858 18.5402 74.99 17.9529 74.5985 17.5344C74.207 17.1159 73.6805 16.9067 73.019 16.9067C72.3575 16.9067 71.831 17.1159 71.4395 17.5344C71.048 17.9529 70.8523 18.5402 70.8523 19.2962V25.4319H67.3895V10.4469H70.8523V15.6512C71.2033 15.1517 71.6825 14.7534 72.29 14.4564C72.8975 14.1594 73.5793 14.0109 74.3353 14.0109Z" fill="#101828"/>
<path d="M87.1298 22.4957V25.4319H85.368C84.1125 25.4319 83.1338 25.1282 82.4318 24.5207C81.7298 23.8997 81.3788 22.8939 81.3788 21.5034V17.0079H80.0018V14.1324H81.3788V11.3784H84.8415V14.1324H87.1095V17.0079H84.8415V21.5439C84.8415 21.8814 84.9225 22.1244 85.0845 22.2729C85.2465 22.4214 85.5165 22.4957 85.8945 22.4957H87.1298Z" fill="#101828"/>
<path d="M92.3188 15.7322C92.6428 15.2057 93.1086 14.7804 93.7161 14.4564C94.3236 14.1324 95.0188 13.9704 95.8018 13.9704C96.7333 13.9704 97.5771 14.2067 98.3331 14.6792C99.0891 15.1517 99.6831 15.8267 100.115 16.7042C100.561 17.5817 100.783 18.6009 100.783 19.7619C100.783 20.9229 100.561 21.9489 100.115 22.8399C99.6831 23.7174 99.0891 24.3992 98.3331 24.8852C97.5771 25.3577 96.7333 25.5939 95.8018 25.5939C95.0053 25.5939 94.3101 25.4387 93.7161 25.1282C93.1221 24.8042 92.6563 24.3789 92.3188 23.8524V25.4319H88.8561V10.4469H92.3188V15.7322ZM97.2598 19.7619C97.2598 18.8979 97.0168 18.2229 96.5308 17.7369C96.0583 17.2374 95.4711 16.9877 94.7691 16.9877C94.0806 16.9877 93.4933 17.2374 93.0073 17.7369C92.5348 18.2364 92.2986 18.9182 92.2986 19.7822C92.2986 20.6462 92.5348 21.3279 93.0073 21.8274C93.4933 22.3269 94.0806 22.5767 94.7691 22.5767C95.4576 22.5767 96.0448 22.3269 96.5308 21.8274C97.0168 21.3144 97.2598 20.6259 97.2598 19.7619Z" fill="#101828"/>
<path d="M107.541 25.5939C106.434 25.5939 105.435 25.3577 104.544 24.8852C103.666 24.4127 102.971 23.7377 102.458 22.8602C101.959 21.9827 101.709 20.9567 101.709 19.7822C101.709 18.6212 101.965 17.6019 102.478 16.7244C102.991 15.8334 103.693 15.1517 104.584 14.6792C105.475 14.2067 106.474 13.9704 107.581 13.9704C108.688 13.9704 109.687 14.2067 110.578 14.6792C111.469 15.1517 112.171 15.8334 112.684 16.7244C113.197 17.6019 113.454 18.6212 113.454 19.7822C113.454 20.9432 113.191 21.9692 112.664 22.8602C112.151 23.7377 111.442 24.4127 110.538 24.8852C109.647 25.3577 108.648 25.5939 107.541 25.5939ZM107.541 22.5969C108.202 22.5969 108.763 22.3539 109.222 21.8679C109.694 21.3819 109.93 20.6867 109.93 19.7822C109.93 18.8777 109.701 18.1824 109.242 17.6964C108.796 17.2104 108.243 16.9674 107.581 16.9674C106.906 16.9674 106.346 17.2104 105.901 17.6964C105.455 18.1689 105.232 18.8642 105.232 19.7822C105.232 20.6867 105.448 21.3819 105.88 21.8679C106.326 22.3539 106.879 22.5969 107.541 22.5969Z" fill="#101828"/>
<path d="M121.771 25.4319L119.604 22.2932L117.782 25.4319H114.036L117.762 19.6607L113.934 14.1324H117.822L119.989 17.2509L121.812 14.1324H125.558L121.771 19.8227L125.659 25.4319H121.771Z" fill="#101828"/>
</svg>
