<svg width="137" height="36" viewBox="0 0 137 36" fill="none" xmlns="http://www.w3.org/2000/svg">
<g clip-path="url(#clip0_11548_1418)">
<path d="M20.577 3.09139L17.4114 2.24316L14.7438 12.1992L12.3353 3.21082L9.16966 4.05905L11.7718 13.7703L5.29043 7.28893L2.97304 9.60633L10.0823 16.7157L1.22884 14.3434L0.380615 17.5089L10.0541 20.101C9.94339 19.6233 9.88479 19.1255 9.88479 18.6141C9.88479 14.9941 12.8194 12.0595 16.4394 12.0595C20.0594 12.0595 22.994 14.9941 22.994 18.6141C22.994 19.1222 22.9361 19.6169 22.8267 20.0918L31.6182 22.4474L32.4664 19.2818L22.7544 16.6795L31.6085 14.3071L30.7602 11.1415L21.0486 13.7436L27.53 7.26232L25.2126 4.94492L18.2019 11.9556L20.577 3.09139Z" fill="#FF4405"/>
<path d="M22.8175 20.1287C22.5461 21.2761 21.9731 22.3069 21.1869 23.1328L27.5559 29.5019L29.8733 27.1845L22.8175 20.1287Z" fill="#FF4405"/>
<path d="M21.1226 23.1994C20.3269 24.0121 19.3214 24.6185 18.1937 24.9311L20.5113 33.5803L23.6769 32.732L21.1226 23.1994Z" fill="#FF4405"/>
<path d="M18.0755 24.9627C17.5523 25.0972 17.004 25.1687 16.4388 25.1687C15.8334 25.1687 15.2471 25.0866 14.6906 24.9329L12.3709 33.59L15.5365 34.4382L18.0755 24.9627Z" fill="#FF4405"/>
<path d="M14.5786 24.901C13.4682 24.5729 12.4806 23.9587 11.7011 23.1437L5.31644 29.5284L7.63384 31.8458L14.5786 24.901Z" fill="#FF4405"/>
<path d="M11.6485 23.0873C10.8824 22.2671 10.3244 21.2501 10.0588 20.1203L1.23865 22.4837L2.08687 25.6493L11.6485 23.0873Z" fill="#FF4405"/>
</g>
<path d="M51.515 9.68188V21.0894L44.2025 9.68188H41.2775V25.4319H44.2025V14.1144L51.515 25.4319H54.44V9.68188H51.515Z" fill="#101828"/>
<path d="M55.758 12.6294H58.773V9.68188H55.758V12.6294ZM55.803 25.4319V14.1819H58.728V25.4319H55.803Z" fill="#101828"/>
<path d="M71.3131 19.8069C71.3131 15.9144 68.5456 14.0694 65.6206 14.0469C62.6731 14.0244 59.9506 15.9144 59.9506 19.8069C59.9506 23.6994 62.6731 25.5894 65.6206 25.5669C68.2981 25.5444 70.1431 24.3069 70.9981 22.2594L68.7256 21.3144C68.0281 22.7094 66.9256 23.2044 65.6206 23.2269C64.4956 23.2494 63.2131 22.7094 62.9431 20.7069H71.2456C71.2906 20.4144 71.3131 20.1219 71.3131 19.8069ZM65.6206 16.3644C66.7456 16.3869 67.8931 16.9944 68.2531 18.6144H62.9881C63.3706 16.9719 64.5181 16.3419 65.6206 16.3644Z" fill="#101828"/>
<path d="M78.0729 16.2744V14.0469H76.2279V11.0319L73.3029 11.9319V14.0469H71.4579V16.2744H73.3029V22.1019C73.3029 24.3069 73.4829 25.4319 76.9029 25.4319H77.6904V22.8669H76.9029C76.3629 22.8669 76.2279 22.7769 76.2279 22.1019V16.2744H78.0729Z" fill="#101828"/>
<path d="M82.4193 22.9794L88.6293 16.6344V14.1819H79.3143V16.6344H85.3443L79.1343 22.9794V25.4319H88.6968V22.9794H82.4193Z" fill="#101828"/>
<path d="M89.7455 22.2594L92.693 21.8094C92.8955 22.9344 94.223 23.3619 95.033 23.3619C95.8655 23.3619 97.3055 23.1819 97.3055 21.8319C97.3055 19.1994 90.083 22.4844 90.083 17.4444C90.083 14.2044 93.8405 14.0244 95.033 14.0244C96.158 14.0244 99.4205 14.2044 100.096 16.8144L97.3055 17.3994C97.058 16.2069 95.798 15.9819 95.123 15.9819C94.448 15.9819 93.008 16.1394 93.008 17.4444C93.008 20.0544 100.231 16.7244 100.231 21.8319C100.231 25.2744 96.2705 25.5669 95.033 25.5669C93.908 25.5669 90.3305 25.2744 89.7455 22.2594Z" fill="#101828"/>
<path d="M104.03 19.8069C104.03 22.5519 105.493 23.3844 107.023 23.3619C108.395 23.3394 109.34 22.7769 109.903 21.2019L112.31 22.3719C111.433 24.6669 109.295 25.5444 107.023 25.5669C104.075 25.5894 101.105 23.6994 101.105 19.8069C101.105 15.9144 104.075 14.0244 107.023 14.0469C109.295 14.0694 111.433 14.9469 112.31 17.2419L109.903 18.4119C109.34 16.8369 108.395 16.2744 107.023 16.2519C105.493 16.2294 104.03 17.0619 104.03 19.8069Z" fill="#101828"/>
<path d="M120.163 14.0019C118.655 14.0019 117.283 14.7894 116.405 16.4769V9.68188H113.48V25.4319H116.405V21.4494C116.405 16.2969 118.543 15.8694 119.33 15.8694C120.59 15.8694 120.77 17.1744 120.77 19.0869V25.4319H123.695V19.0869C123.695 16.7019 123.313 14.0019 120.163 14.0019Z" fill="#101828"/>
<path d="M136.045 19.8069C136.045 15.9144 133.277 14.0694 130.352 14.0469C127.405 14.0244 124.682 15.9144 124.682 19.8069C124.682 23.6994 127.405 25.5894 130.352 25.5669C133.03 25.5444 134.875 24.3069 135.73 22.2594L133.457 21.3144C132.76 22.7094 131.657 23.2044 130.352 23.2269C129.227 23.2494 127.945 22.7094 127.675 20.7069H135.977C136.022 20.4144 136.045 20.1219 136.045 19.8069ZM130.352 16.3644C131.477 16.3869 132.625 16.9944 132.985 18.6144H127.72C128.102 16.9719 129.25 16.3419 130.352 16.3644Z" fill="#101828"/>
<defs>
<clipPath id="clip0_11548_1418">
<rect width="33" height="33" fill="white" transform="translate(0.125 1.5)"/>
</clipPath>
</defs>
</svg>
