<svg width="141" height="40" viewBox="0 0 141 40" fill="none" xmlns="http://www.w3.org/2000/svg">
<rect x="0.083374" y="16" width="7.99999" height="7.99999" fill="#079455"/>
<rect x="24.0834" y="24" width="8" height="7.99999" transform="rotate(180 24.0834 24)" fill="#067647"/>
<path d="M8.08344 16L16.0834 8V16L8.08344 24V16Z" fill="#ABEFC6"/>
<path d="M16.0834 24L8.08339 32L8.08339 24L16.0834 16L16.0834 24Z" fill="#75E0A7"/>
<path d="M0.083374 16L16.0833 0V7.99999L8.08336 16H0.083374Z" fill="#47CD89"/>
<path d="M24.0833 24L8.08333 40L8.08333 32L16.0833 24L24.0833 24Z" fill="#17B26A"/>
<path d="M41.5067 28.5666C40.2467 28.5666 39.0256 28.3877 37.8434 28.0299C36.6767 27.6722 35.7512 27.1977 35.0667 26.6066L36.1167 24.2499C36.7856 24.7788 37.6023 25.2144 38.5667 25.5566C39.5467 25.8833 40.5267 26.0466 41.5067 26.0466C42.72 26.0466 43.6223 25.8522 44.2134 25.4633C44.82 25.0744 45.1234 24.5611 45.1234 23.9233C45.1234 23.4566 44.9523 23.0755 44.61 22.7799C44.2834 22.4688 43.8634 22.2277 43.35 22.0566C42.8367 21.8855 42.1367 21.6911 41.25 21.4733C40.0056 21.1777 38.9945 20.8822 38.2167 20.5866C37.4545 20.2911 36.7934 19.8322 36.2334 19.2099C35.6889 18.5722 35.4167 17.7166 35.4167 16.6433C35.4167 15.7411 35.6578 14.9244 36.14 14.1933C36.6378 13.4466 37.3767 12.8555 38.3567 12.4199C39.3523 11.9844 40.5656 11.7666 41.9967 11.7666C42.9923 11.7666 43.9723 11.8911 44.9367 12.1399C45.9012 12.3888 46.7334 12.7466 47.4334 13.2133L46.4767 15.5699C45.7612 15.1499 45.0145 14.8311 44.2367 14.6133C43.4589 14.3955 42.7045 14.2866 41.9734 14.2866C40.7756 14.2866 39.8812 14.4888 39.29 14.8933C38.7145 15.2977 38.4267 15.8344 38.4267 16.5033C38.4267 16.9699 38.59 17.3511 38.9167 17.6466C39.2589 17.9422 39.6867 18.1755 40.2 18.3466C40.7134 18.5177 41.4134 18.7122 42.3 18.9299C43.5134 19.2099 44.5089 19.5055 45.2867 19.8166C46.0645 20.1122 46.7256 20.5711 47.27 21.1933C47.83 21.8155 48.11 22.6555 48.11 23.7133C48.11 24.6155 47.8612 25.4322 47.3634 26.1633C46.8812 26.8944 46.1423 27.4777 45.1467 27.9133C44.1512 28.3488 42.9378 28.5666 41.5067 28.5666Z" fill="#101828"/>
<path d="M50.8379 15.8733H53.7545V28.3333H50.8379V15.8733ZM52.3078 13.8199C51.779 13.8199 51.3356 13.6566 50.9779 13.3299C50.6201 12.9877 50.4412 12.5677 50.4412 12.0699C50.4412 11.5722 50.6201 11.1599 50.9779 10.8333C51.3356 10.4911 51.779 10.3199 52.3078 10.3199C52.8367 10.3199 53.2801 10.4833 53.6378 10.8099C53.9956 11.1211 54.1745 11.5177 54.1745 11.9999C54.1745 12.5133 53.9956 12.9488 53.6378 13.3066C53.2956 13.6488 52.8523 13.8199 52.3078 13.8199Z" fill="#101828"/>
<path d="M61.4326 28.4966C60.4215 28.4966 59.4338 28.3644 58.4693 28.0999C57.5049 27.8355 56.7349 27.5011 56.1593 27.0966L57.2793 24.8799C57.8393 25.2533 58.5082 25.5566 59.286 25.7899C60.0793 26.0077 60.8571 26.1166 61.6193 26.1166C63.3615 26.1166 64.2326 25.6577 64.2326 24.7399C64.2326 24.3044 64.0071 24.0011 63.556 23.8299C63.1204 23.6588 62.4126 23.4955 61.4326 23.3399C60.406 23.1844 59.566 23.0055 58.9126 22.8033C58.2749 22.6011 57.7149 22.2511 57.2326 21.7533C56.766 21.2399 56.5326 20.5322 56.5326 19.6299C56.5326 18.4477 57.0226 17.5066 58.0026 16.8066C58.9982 16.0911 60.336 15.7333 62.016 15.7333C62.8715 15.7333 63.7271 15.8344 64.5826 16.0366C65.4382 16.2233 66.1382 16.4799 66.6826 16.8066L65.5626 19.0233C64.5049 18.4011 63.3149 18.0899 61.9926 18.0899C61.1371 18.0899 60.4837 18.2222 60.0326 18.4866C59.5971 18.7355 59.3793 19.0699 59.3793 19.4899C59.3793 19.9566 59.6126 20.2911 60.0793 20.4933C60.5615 20.6799 61.3004 20.8588 62.296 21.0299C63.2915 21.1855 64.1082 21.3644 64.746 21.5666C65.3837 21.7688 65.9282 22.1111 66.3793 22.5933C66.846 23.0755 67.0793 23.7599 67.0793 24.6466C67.0793 25.8133 66.5737 26.7466 65.5626 27.4466C64.5515 28.1466 63.1749 28.4966 61.4326 28.4966Z" fill="#101828"/>
<path d="M81.0299 15.8733L75.1966 29.3366C74.6521 30.6899 73.991 31.6388 73.2132 32.1833C72.4355 32.7433 71.4943 33.0233 70.3899 33.0233C69.7677 33.0233 69.1532 32.9222 68.5466 32.7199C67.9399 32.5177 67.4421 32.2377 67.0532 31.8799L68.2199 29.7333C68.4999 29.9977 68.8266 30.2077 69.1999 30.3633C69.5888 30.5188 69.9777 30.5966 70.3666 30.5966C70.8799 30.5966 71.2999 30.4644 71.6266 30.1999C71.9688 29.9355 72.2799 29.4922 72.5599 28.8699L72.7699 28.3799L67.3332 15.8733H70.3666L74.2866 25.0899L78.2299 15.8733H81.0299Z" fill="#101828"/>
<path d="M89.7595 15.7333C90.9728 15.7333 92.0539 15.9977 93.0028 16.5266C93.9672 17.0555 94.7217 17.8022 95.2661 18.7666C95.8106 19.7311 96.0828 20.8433 96.0828 22.1033C96.0828 23.3633 95.8106 24.4833 95.2661 25.4633C94.7217 26.4277 93.9672 27.1744 93.0028 27.7033C92.0539 28.2322 90.9728 28.4966 89.7595 28.4966C88.0795 28.4966 86.7495 27.9366 85.7695 26.8166V32.8599H82.8528V15.8733H85.6295V17.5066C86.1117 16.9155 86.7028 16.4722 87.4028 16.1766C88.1184 15.8811 88.9039 15.7333 89.7595 15.7333ZM89.4328 25.9999C90.5061 25.9999 91.385 25.6422 92.0695 24.9266C92.7695 24.2111 93.1195 23.2699 93.1195 22.1033C93.1195 20.9366 92.7695 19.9955 92.0695 19.2799C91.385 18.5644 90.5061 18.2066 89.4328 18.2066C88.7328 18.2066 88.1028 18.3699 87.5428 18.6966C86.9828 19.0077 86.5395 19.4588 86.2128 20.0499C85.8861 20.6411 85.7228 21.3255 85.7228 22.1033C85.7228 22.8811 85.8861 23.5655 86.2128 24.1566C86.5395 24.7477 86.9828 25.2066 87.5428 25.5333C88.1028 25.8444 88.7328 25.9999 89.4328 25.9999Z" fill="#101828"/>
<path d="M105.919 15.7333C107.49 15.7333 108.75 16.1922 109.699 17.1099C110.648 18.0277 111.122 19.3888 111.122 21.1933V28.3333H108.206V21.5666C108.206 20.4777 107.949 19.6611 107.436 19.1166C106.922 18.5566 106.191 18.2766 105.242 18.2766C104.169 18.2766 103.321 18.6033 102.699 19.2566C102.077 19.8944 101.766 20.8199 101.766 22.0333V28.3333H98.8489V11.0199H101.766V17.3199C102.248 16.8066 102.839 16.4177 103.539 16.1533C104.254 15.8733 105.048 15.7333 105.919 15.7333Z" fill="#101828"/>
<path d="M126.886 15.8733V28.3333H124.109V26.7466C123.642 27.3066 123.059 27.7422 122.359 28.0533C121.659 28.3488 120.904 28.4966 120.096 28.4966C118.431 28.4966 117.117 28.0377 116.152 27.1199C115.203 26.1866 114.729 24.8099 114.729 22.9899V15.8733H117.646V22.5933C117.646 23.7133 117.894 24.5533 118.392 25.1133C118.906 25.6577 119.629 25.9299 120.562 25.9299C121.604 25.9299 122.429 25.6111 123.036 24.9733C123.658 24.3199 123.969 23.3866 123.969 22.1733V15.8733H126.886Z" fill="#101828"/>
<path d="M134.554 28.4966C133.543 28.4966 132.555 28.3644 131.591 28.0999C130.627 27.8355 129.857 27.5011 129.281 27.0966L130.401 24.8799C130.961 25.2533 131.63 25.5566 132.408 25.7899C133.201 26.0077 133.979 26.1166 134.741 26.1166C136.483 26.1166 137.354 25.6577 137.354 24.7399C137.354 24.3044 137.129 24.0011 136.678 23.8299C136.242 23.6588 135.534 23.4955 134.554 23.3399C133.528 23.1844 132.688 23.0055 132.034 22.8033C131.397 22.6011 130.837 22.2511 130.354 21.7533C129.888 21.2399 129.654 20.5322 129.654 19.6299C129.654 18.4477 130.144 17.5066 131.124 16.8066C132.12 16.0911 133.458 15.7333 135.138 15.7333C135.993 15.7333 136.849 15.8344 137.704 16.0366C138.56 16.2233 139.26 16.4799 139.804 16.8066L138.684 19.0233C137.627 18.4011 136.437 18.0899 135.114 18.0899C134.259 18.0899 133.605 18.2222 133.154 18.4866C132.719 18.7355 132.501 19.0699 132.501 19.4899C132.501 19.9566 132.734 20.2911 133.201 20.4933C133.683 20.6799 134.422 20.8588 135.418 21.0299C136.413 21.1855 137.23 21.3644 137.868 21.5666C138.505 21.7688 139.05 22.1111 139.501 22.5933C139.968 23.0755 140.201 23.7599 140.201 24.6466C140.201 25.8133 139.695 26.7466 138.684 27.4466C137.673 28.1466 136.297 28.4966 134.554 28.4966Z" fill="#101828"/>
</svg>
