<svg width="125" height="36" viewBox="0 0 125 36" fill="none" xmlns="http://www.w3.org/2000/svg">
<circle cx="17" cy="18.1875" r="15" stroke="#6927DA" stroke-width="3"/>
<path d="M22.8336 24.0212C19.7682 27.0866 16.3081 29.0738 13.2514 29.8598C10.157 30.6555 7.77018 30.1709 6.39338 28.7941C5.01657 27.4173 4.53201 25.0305 5.32772 21.9361C6.11373 18.8794 8.10089 15.4194 11.1663 12.3539C14.2318 9.28844 17.6918 7.30128 20.7485 6.51527C23.843 5.71956 26.2298 6.20412 27.6066 7.58093C28.9834 8.95773 29.4679 11.3445 28.6722 14.439C27.8862 17.4957 25.8991 20.9557 22.8336 24.0212Z" stroke="#6927DA" stroke-width="3"/>
<path d="M22.8335 12.3539C25.8989 15.4193 27.8861 18.8794 28.6721 21.9361C29.4678 25.0305 28.9833 27.4173 27.6064 28.7941C26.2296 30.1709 23.8428 30.6555 20.7484 29.8598C17.6917 29.0738 14.2317 27.0866 11.1662 24.0212C8.10076 20.9557 6.1136 17.4957 5.32759 14.439C4.53187 11.3445 5.01644 8.95773 6.39324 7.58092C7.77005 6.20412 10.1569 5.71955 13.2513 6.51526C16.308 7.30127 19.768 9.28844 22.8335 12.3539Z" stroke="#6927DA" stroke-width="3"/>
<path d="M47.6375 25.6799C51.17 25.6799 53.555 23.8349 53.555 20.8874C53.555 14.6549 45.275 17.3099 45.275 14.0249C45.275 13.1024 46.1075 12.4724 47.435 12.4724C48.9425 12.4724 49.8875 13.2824 50 14.5199H53.2175C53.1275 11.5274 50.8325 9.56992 47.435 9.56992C44.24 9.56992 41.99 11.4149 41.99 14.0249C41.99 20.2124 50.1575 17.8499 50.1575 20.9324C50.1575 22.1249 49.145 22.7549 47.6375 22.7549C45.9725 22.7549 44.915 21.7424 44.78 20.1449H41.54C41.675 23.4974 44.06 25.6799 47.6375 25.6799Z" fill="#101828"/>
<path d="M54.3202 30.0899H57.4477V24.4874C58.0552 25.2524 59.1577 25.6799 60.4402 25.6799C63.7027 25.6799 65.9077 23.3624 65.9077 19.8299C65.9077 16.2974 63.8827 13.9799 60.7102 13.9799C59.2477 13.9799 58.1227 14.5199 57.4477 15.3974V14.1599H54.3202V30.0899ZM60.0577 22.9799C58.3702 22.9799 57.2677 21.7199 57.2677 19.8299C57.2677 17.9174 58.3702 16.6574 60.0577 16.6574C61.7002 16.6574 62.8252 17.9174 62.8252 19.8299C62.8252 21.7199 61.7002 22.9799 60.0577 22.9799Z" fill="#101828"/>
<path d="M66.6644 25.4999H69.7919V19.2899C69.7919 17.8274 70.7594 16.7699 72.1319 16.7699C73.4369 16.7699 74.3369 17.7599 74.3369 19.1324V25.4999H77.4644V18.4349C77.4644 15.8249 75.7994 13.9799 73.2569 13.9799C71.6819 13.9799 70.4444 14.6324 69.7919 15.7349V9.23242H66.6644V25.4999Z" fill="#101828"/>
<path d="M86.2134 21.6524C85.9659 22.6199 85.1334 23.1149 83.8734 23.1149C82.2984 23.1149 81.2859 22.1249 81.0609 20.5274H89.2059C89.2284 20.2799 89.2509 19.9424 89.2509 19.5149C89.2509 16.9274 87.6534 13.9799 83.6484 13.9799C79.8009 13.9799 78.0459 16.9274 78.0459 19.8074C78.0459 22.6649 80.0259 25.6799 83.8734 25.6799C86.6634 25.6799 88.8234 24.1049 89.2734 21.6524H86.2134ZM83.6484 16.2749C85.1559 16.2749 86.0334 17.2874 86.1234 18.5474H81.1059C81.3759 16.9724 82.2309 16.2749 83.6484 16.2749Z" fill="#101828"/>
<path d="M97.4532 16.7699V14.1599H95.8395C94.467 14.1599 93.612 14.6324 93.0045 16.0499V14.1599H89.8545V25.4999H93.0045V19.9874C93.0045 18.0524 93.702 16.7699 95.2545 16.7699H97.4532Z" fill="#101828"/>
<path d="M108.253 14.1599H105.103V20.3699C105.103 21.8099 104.136 22.8899 102.763 22.8899C101.481 22.8899 100.581 21.8999 100.581 20.5274V14.1599H97.4532V21.2249C97.4532 23.8124 99.1182 25.6799 101.661 25.6799C103.213 25.6799 104.473 25.0049 105.103 23.9249V25.4999H108.253V14.1599Z" fill="#101828"/>
<path d="M109.603 25.4999H112.731V9.23242H109.603V25.4999Z" fill="#101828"/>
<path d="M121.66 21.6524C121.412 22.6199 120.58 23.1149 119.32 23.1149C117.745 23.1149 116.732 22.1249 116.507 20.5274H124.652C124.675 20.2799 124.697 19.9424 124.697 19.5149C124.697 16.9274 123.1 13.9799 119.095 13.9799C115.247 13.9799 113.492 16.9274 113.492 19.8074C113.492 22.6649 115.472 25.6799 119.32 25.6799C122.11 25.6799 124.27 24.1049 124.72 21.6524H121.66ZM119.095 16.2749C120.602 16.2749 121.48 17.2874 121.57 18.5474H116.552C116.822 16.9724 117.677 16.2749 119.095 16.2749Z" fill="#101828"/>
</svg>
